<svg width="140" height="139" viewBox="0 0 140 139" fill="none" xmlns="http://www.w3.org/2000/svg">
<g clip-path="url(#clip0_538_5654)">
<path d="M132.151 127.31C124.418 132.336 116.716 134.27 108.956 134.27C96.4802 134.27 83.8713 129.27 70.818 124.096C49.5335 115.656 27.5202 106.932 5.44908 121.283C5.26686 121.403 5.09797 121.505 4.93797 121.599L22.6935 60.5809C22.7824 60.2787 22.898 59.9542 23.0402 59.612C24.2046 56.7898 26.4091 54.4565 29.2357 53.0387L31.5246 51.892C31.9646 52.3942 32.3913 52.8787 32.8046 53.332C33.9157 54.5676 35.5024 55.2787 37.1646 55.2787C38.8269 55.2787 40.418 54.572 41.5246 53.332C42.0402 52.7542 42.5869 52.1409 43.1513 51.492H86.8313C86.7335 51.9809 86.6535 52.4787 86.5913 52.9765C88.1957 53.9231 89.6935 55.0298 91.0624 56.2787C91.0535 56.1098 91.0446 55.9453 91.0446 55.7853C91.0446 46.0342 98.978 38.1053 108.725 38.1053C118.471 38.1053 126.405 46.0387 126.405 55.7853C126.405 61.1765 120.138 71.3809 109.64 83.0787C109.32 83.4342 108.929 83.4876 108.725 83.4876C108.52 83.4876 108.129 83.4342 107.809 83.0787C104.734 79.652 102.022 76.3542 99.7246 73.2653C99.8313 74.2298 99.8846 75.212 99.8846 76.2031C99.8846 77.5098 99.7202 78.892 99.3868 80.3542C101.156 82.5276 102.871 84.5098 104.365 86.172C105.476 87.4076 107.062 88.1187 108.725 88.1187C110.387 88.1187 111.978 87.4076 113.085 86.172C115.014 84.0253 117.316 81.3453 119.618 78.4076C121.676 84.4298 124.347 91.1898 126.947 97.772C130.116 105.803 133.396 114.105 135.489 120.883C135.929 122.274 134.689 125.656 132.138 127.305L132.151 127.31ZM37.1646 5.26978C46.9157 5.26978 54.8446 13.2031 54.8446 22.9498C54.8446 28.3409 48.578 38.5453 38.0802 50.2431C37.7602 50.5987 37.3691 50.6476 37.1646 50.6476C36.9602 50.6476 36.5691 50.5942 36.2491 50.2431C25.7513 38.5453 19.4846 28.3409 19.4846 22.9498C19.4846 13.1987 27.418 5.26978 37.1646 5.26978ZM131.067 96.1542C128.058 88.532 124.951 80.6653 122.854 74.0965C127.307 67.8253 131.045 61.0031 131.045 55.7942C131.045 43.492 121.036 33.4831 108.734 33.4831C99.5024 33.4831 91.5602 39.1187 88.1735 47.132C88.0268 47.1009 87.8713 47.0831 87.7157 47.0831H46.8669C52.9424 39.5498 59.4802 29.8476 59.4802 22.9587C59.4757 10.6476 49.4669 0.638672 37.1646 0.638672C24.8624 0.638672 14.8535 10.6476 14.8535 22.9498C14.8535 30.2609 22.2135 40.7365 28.5735 48.4298L27.258 49.0876C23.4757 50.9809 20.5291 54.1187 18.9557 57.9276C18.7557 58.412 18.5869 58.8876 18.4535 59.3409L0.275745 121.803C-0.453144 124.288 0.400189 125.559 1.24463 126.185C3.2313 127.665 5.96463 126.216 7.85797 124.994C28.018 111.888 48.018 119.816 69.1913 128.208C82.2491 133.385 95.578 138.67 109.027 138.67C117.502 138.67 126.027 136.572 134.56 131.021C138.445 128.51 140.854 123.154 139.725 119.572C137.582 112.643 134.276 104.261 131.071 96.1542H131.067Z" fill="#FBF8F4"/>
<path d="M30.3246 21.5366C30.3246 17.7633 33.3957 14.6966 37.1646 14.6966C40.9335 14.6966 44.0046 17.7677 44.0046 21.5366C44.0046 25.3055 40.9335 28.3766 37.1646 28.3766C33.3957 28.3766 30.3246 25.3055 30.3246 21.5366ZM48.4268 21.5366C48.4268 15.3277 43.3735 10.2744 37.1646 10.2744C30.9557 10.2744 25.9023 15.3277 25.9023 21.5366C25.9023 27.7455 30.9557 32.7989 37.1646 32.7989C43.3735 32.7989 48.4268 27.7455 48.4268 21.5366Z" fill="#FBF8F4"/>
<path d="M108.735 47.5365C112.508 47.5365 115.575 50.6031 115.575 54.3765C115.575 58.1498 112.504 61.2165 108.735 61.2165C104.966 61.2165 101.895 58.1454 101.895 54.3765C101.895 50.6076 104.966 47.5365 108.735 47.5365ZM108.735 65.6387C114.944 65.6387 119.997 60.5854 119.997 54.3765C119.997 48.1676 114.944 43.1143 108.735 43.1143C102.526 43.1143 97.4727 48.1676 97.4727 54.3765C97.4727 60.5854 102.526 65.6387 108.735 65.6387Z" fill="#FBF8F4"/>
<path d="M73.8673 103.501C73.5473 103.856 73.1562 103.905 72.9517 103.905C72.7473 103.905 72.3562 103.852 72.0362 103.501C61.5384 91.8032 55.2717 81.5987 55.2717 76.2076C55.2717 66.4565 63.2051 58.5276 72.9517 58.5276C82.6984 58.5276 90.6317 66.4609 90.6317 76.2076C90.6317 81.5987 84.3651 91.8032 73.8673 103.501ZM72.9517 53.8965C60.6495 53.8965 50.6406 63.9054 50.6406 76.2076C50.6406 85.2476 61.8895 99.1232 68.5917 106.594C69.7028 107.83 71.2895 108.541 72.9517 108.541C74.614 108.541 76.2051 107.834 77.3117 106.594C84.014 99.1276 95.2628 85.2476 95.2628 76.2076C95.2628 63.9054 85.254 53.8965 72.9517 53.8965Z" fill="#FBF8F4"/>
<path d="M72.9497 81.6335C69.1764 81.6335 66.1097 78.5624 66.1097 74.7935C66.1097 71.0246 69.1808 67.9535 72.9497 67.9535C76.7186 67.9535 79.7897 71.0201 79.7897 74.7935C79.7897 78.5668 76.7186 81.6335 72.9497 81.6335ZM72.9497 63.5312C66.7408 63.5312 61.6875 68.5846 61.6875 74.7935C61.6875 81.0024 66.7408 86.0557 72.9497 86.0557C79.1586 86.0557 84.2119 81.0024 84.2119 74.7935C84.2119 68.5846 79.1586 63.5312 72.9497 63.5312Z" fill="#FBF8F4"/>
</g>
<defs>
<clipPath id="clip0_538_5654">
<rect width="140" height="138.031" fill="white" transform="translate(0 0.638672)"/>
</clipPath>
</defs>
</svg>
