<svg width="357" height="349" viewBox="0 0 357 349" fill="none" xmlns="http://www.w3.org/2000/svg">
<g clip-path="url(#clip0_538_4955)">
<path d="M259.218 117.791C265.696 113.58 288.308 87.0226 307.405 61.0408C312.001 54.7868 316.382 48.5829 320.27 42.7545C320.345 42.6144 320.434 42.4812 320.535 42.357C328.625 30.1932 334.522 19.7099 335.666 13.9022C336.02 12.1009 335.613 10.3353 334.71 8.9083C334.218 8.13015 333.577 7.45192 332.831 6.92295C332.111 6.41239 331.288 6.04649 330.405 5.87259C328.911 5.57837 327.222 5.84938 325.532 6.91865C318.162 11.5816 304.988 29.9152 292.113 50.4026C274.927 77.752 258.473 108.648 256.935 116.233C256.807 116.86 256.826 117.372 256.955 117.757C257.028 117.972 257.133 118.127 257.258 118.212C257.386 118.299 257.576 118.341 257.814 118.329C258.208 118.309 258.684 118.138 259.218 117.791ZM244.702 135.486C246.027 134.218 245.584 132.012 243.87 131.355C242.969 131.018 241.971 131.217 241.273 131.879L240.849 132.279L240.423 132.677L239.995 133.073L239.564 133.466L239.13 133.858L238.694 134.247L238.255 134.634L237.814 135.019L237.371 135.402L236.925 135.783L236.476 136.161L236.025 136.538L235.572 136.912L235.117 137.284L234.659 137.654L234.199 138.022L233.914 138.248C232.528 139.359 232.706 141.506 234.258 142.374C235.148 142.86 236.216 142.771 237.013 142.143L237.298 141.918L237.778 141.533L238.256 141.147L238.732 140.758L239.206 140.367L239.677 139.973L240.146 139.577L240.612 139.179L241.077 138.778L241.539 138.375L241.998 137.97L242.455 137.562L242.909 137.151L243.361 136.739L243.811 136.324L244.258 135.906L244.702 135.486ZM21.434 292.193C22.3224 293.8 24.5676 293.93 25.6411 292.441C26.1966 291.655 26.2578 290.641 25.796 289.796L25.6844 289.595L25.3262 288.936L24.9781 288.284L24.6402 287.637L24.3123 286.996L23.9943 286.361L23.6864 285.732L23.3883 285.108L23.0999 284.49L22.8214 283.878L22.5525 283.271L22.2932 282.67L22.0434 282.075L21.8032 281.485L21.6553 281.111C21.0157 279.489 18.9694 279.001 17.6681 280.166C16.8999 280.866 16.6423 281.946 17.0168 282.917L17.1839 283.339L17.4438 283.977L17.7133 284.619L17.9922 285.266L18.2809 285.917L18.5794 286.573L18.8876 287.234L19.2055 287.899L19.5334 288.569L19.8712 289.244L20.2189 289.923L20.5767 290.608L20.9444 291.297L21.3224 291.992L21.434 292.193ZM13.6386 267.527C13.6484 268.798 14.6075 269.856 15.8725 269.987C17.3508 270.134 18.6216 268.981 18.6158 267.496L18.6107 267.132L18.6115 266.692L18.6194 266.255L18.6344 265.824L18.6565 265.396L18.6853 264.973L18.721 264.554L18.7634 264.139L18.8126 263.728L18.8684 263.321L18.9307 262.918L18.9996 262.519L19.0749 262.123L19.1566 261.731L19.2447 261.343L19.3391 260.959L19.4397 260.577L19.5465 260.199L19.6594 259.825L19.7786 259.454L19.9037 259.086L20.0349 258.721L20.0614 258.651C20.708 256.975 19.4355 255.195 17.64 255.262C16.644 255.307 15.7881 255.919 15.4225 256.847L15.3657 256.997L15.2053 257.443L15.0524 257.893L14.9069 258.346L14.7688 258.804L14.6384 259.265L14.5156 259.73L14.4005 260.2L14.2932 260.673L14.1937 261.149L14.1022 261.63L14.0187 262.114L13.9431 262.602L13.8757 263.094L13.8164 263.59L13.7653 264.089L13.7224 264.592L13.6879 265.099L13.6617 265.609L13.6438 266.124L13.6344 266.642L13.6334 267.164L13.6386 267.527ZM24.7604 243.894C23.4434 245.055 23.6941 247.167 25.2546 247.979C26.1683 248.447 27.2609 248.317 28.0357 247.642L28.2106 247.487L28.5396 247.203L28.8734 246.92L29.212 246.639L29.5553 246.36L29.9031 246.082L30.2558 245.806L30.613 245.532L30.9746 245.259L31.3407 244.988L31.7111 244.719L32.0859 244.451L32.4651 244.185L32.8485 243.92L33.236 243.657L33.6276 243.395L34.0232 243.135L34.4229 242.877L34.8268 242.619L35.2343 242.363L35.7321 242.056C36.6449 241.499 37.0965 240.451 36.8775 239.404C36.5074 237.729 34.6267 236.916 33.1553 237.798L33.0416 237.867L32.6022 238.139L32.1662 238.413L31.7336 238.688L31.3041 238.966L30.878 239.246L30.4554 239.529L30.0363 239.813L29.6208 240.1L29.209 240.389L28.8007 240.681L28.3962 240.975L27.9956 241.272L27.5989 241.571L27.2061 241.873L26.8173 242.177L26.4324 242.484L26.0518 242.794L25.6754 243.106L25.3032 243.421L24.9352 243.74L24.7604 243.894ZM46.6832 230.813C45.1446 231.51 44.7298 233.479 45.8496 234.743C46.5827 235.552 47.726 235.796 48.7243 235.352L49.4731 235.016L49.9737 234.793L50.4762 234.571C52.9061 233.503 55.3488 232.47 57.8013 231.455C59.4044 230.784 59.8538 228.74 58.674 227.46C57.9591 226.698 56.8675 226.459 55.9001 226.855C53.5853 227.814 51.279 228.787 48.9831 229.79L48.4686 230.016L47.9555 230.243L47.4438 230.471L46.6832 230.813ZM69.6843 221.172C68.0206 221.885 67.641 224.056 68.9658 225.291C69.6928 225.957 70.7168 226.135 71.6263 225.755C72.812 225.253 73.9944 224.746 75.1748 224.232L76.2254 223.771L76.7493 223.538L77.2721 223.305L77.7941 223.071L78.3147 222.836L78.834 222.599L79.3521 222.362L79.8692 222.123L80.3846 221.883L80.8166 221.68C82.4989 220.882 82.7445 218.604 81.2767 217.459C80.5312 216.888 79.5446 216.778 78.6938 217.178L78.2761 217.374L77.7743 217.608L77.2709 217.84L76.7654 218.072L76.2582 218.303L75.7495 218.533L75.2393 218.762L74.7275 218.99C73.0522 219.732 71.3718 220.458 69.6843 221.172ZM91.5044 210.217C90.0133 211.197 89.9968 213.36 91.4721 214.365C92.3097 214.922 93.3778 214.935 94.2232 214.386L94.486 214.216L94.9342 213.921L95.3795 213.624L95.8213 213.325L96.26 213.023L96.6954 212.719L97.3238 212.272L97.9516 211.819L98.5786 211.358L99.205 210.891L99.8306 210.417L100.455 209.936L101.079 209.449L101.702 208.956L102.325 208.455L102.467 208.34C103.733 207.289 103.666 205.35 102.33 204.388C101.412 203.738 100.179 203.779 99.3076 204.493L99.1924 204.587L98.5975 205.065L98.0022 205.537L97.4065 206.002L96.8105 206.461L96.2142 206.912L95.6178 207.357L95.0213 207.795L94.4246 208.226L93.8279 208.65L93.4234 208.933L93.0148 209.214L92.6026 209.493L92.1867 209.771L91.7672 210.046L91.5044 210.217ZM110.099 194.593C108.864 195.87 109.318 197.98 110.967 198.642C111.911 199.009 112.96 198.787 113.669 198.062L113.92 197.805L114.516 197.188L115.11 196.566L115.702 195.939L116.292 195.308L116.881 194.671L117.467 194.029L118.052 193.382L118.634 192.731L119.215 192.074L119.793 191.414L120.369 190.748L120.497 190.599C121.655 189.233 121.047 187.144 119.339 186.606C118.382 186.315 117.361 186.61 116.709 187.37L116.598 187.5L116.039 188.146L115.478 188.787L114.915 189.423L114.35 190.055L113.784 190.681L113.215 191.303L112.646 191.92L112.074 192.532L111.501 193.139L110.927 193.74L110.351 194.336L110.099 194.593ZM131.173 176.857L131.38 176.563L131.902 175.815L132.42 175.063L132.936 174.308L133.448 173.55L133.957 172.789L134.463 172.025L134.965 171.258L135.541 170.369C136.499 168.848 135.607 166.86 133.83 166.571C132.847 166.42 131.882 166.855 131.345 167.691L130.795 168.541L130.305 169.288L129.813 170.032L129.317 170.773L128.818 171.512L128.316 172.247L127.812 172.978L127.304 173.707L126.793 174.432L126.279 175.154L126.173 175.302C123.704 175.506 121.215 175.684 118.74 175.793C116.894 175.887 115.794 177.874 116.687 179.492C117.154 180.32 118.03 180.809 118.981 180.765C122.324 180.617 125.69 180.357 129.021 180.048C130.623 179.893 131.613 178.328 131.173 176.857ZM138.827 154.996C138.02 156.524 138.951 158.371 140.66 158.632C141.708 158.779 142.714 158.275 143.217 157.342L143.393 157.015L143.824 156.203L144.251 155.39L144.674 154.574L145.092 153.758L145.507 152.939L145.916 152.119L146.322 151.298L146.723 150.475L147.119 149.651L147.511 148.826L147.746 148.325C148.512 146.657 147.296 144.77 145.458 144.785C144.495 144.801 143.643 145.353 143.233 146.224L143.009 146.703L142.628 147.505L142.243 148.306L141.853 149.106L141.459 149.905L141.06 150.703L140.657 151.499L140.25 152.294L139.838 153.087L139.423 153.879L139.003 154.669L138.827 154.996ZM148.866 132.649C148.238 134.429 149.721 136.228 151.59 135.947C152.499 135.802 153.239 135.19 153.553 134.324L153.734 133.822L154.03 132.984L154.322 132.146L154.607 131.308L154.887 130.469L155.162 129.631L155.431 128.794L155.694 127.956L155.951 127.119L156.203 126.282L156.449 125.445L156.664 124.695C157.174 122.878 155.568 121.181 153.725 121.587C152.83 121.792 152.127 122.454 151.875 123.338L151.668 124.058L151.432 124.864L151.189 125.671L150.941 126.479L150.687 127.287L150.427 128.096L150.162 128.906L149.891 129.716L149.615 130.526L149.334 131.336L149.047 132.147L148.866 132.649ZM155.004 109.073C154.75 110.833 156.341 112.278 158.07 111.855C159.05 111.606 159.775 110.808 159.927 109.808L159.943 109.705L160.061 108.889L160.173 108.074L160.278 107.261L160.376 106.45L160.467 105.641L160.551 104.833L160.627 104.028L160.697 103.224L160.759 102.422L160.814 101.623L160.861 100.825L160.902 100.03L160.918 99.6284C160.955 98.5739 160.335 97.6228 159.358 97.2268C157.754 96.591 156.011 97.7226 155.944 99.4464L155.929 99.8017L155.892 100.551L155.847 101.304L155.795 102.059L155.736 102.817L155.67 103.578L155.598 104.341L155.518 105.106L155.432 105.874L155.339 106.645L155.239 107.418L155.133 108.193L155.02 108.97L155.004 109.073ZM155.088 85.103C155.418 86.882 157.452 87.732 158.949 86.7118C159.758 86.1493 160.158 85.1898 159.987 84.2188L159.939 83.9476L159.803 83.2164L159.658 82.4887L159.503 81.7649L159.34 81.045L159.169 80.3287L158.988 79.6164L158.798 78.9081L158.599 78.2038L158.391 77.5039L158.174 76.8081L157.948 76.1166L157.712 75.4295L157.467 74.7468L157.254 74.1782C156.86 73.1574 155.861 72.5183 154.77 72.5851C153.092 72.701 152.009 74.3885 152.606 75.9604L152.794 76.4617L153.015 77.0774L153.228 77.6982L153.433 78.3237L153.63 78.9539L153.818 79.5889L153.999 80.2285L154.172 80.8727L154.336 81.5214L154.493 82.1746L154.642 82.8325L154.783 83.4947L154.916 84.161L155.041 84.8318L155.088 85.103ZM145.51 63.8959C146.707 65.2694 148.912 64.945 149.663 63.2837C150.056 62.3934 149.909 61.3754 149.272 60.6373L149.132 60.4729L148.648 59.9233L148.154 59.3803L147.649 58.8439L147.133 58.3146L146.607 57.7921L146.071 57.2766L145.524 56.7682L144.966 56.2669L144.398 55.773L143.82 55.2863L143.23 54.8071L142.63 54.3352L142.019 53.871L141.543 53.5207C140.121 52.4984 138.129 53.2141 137.677 54.9067C137.42 55.9081 137.791 56.9468 138.628 57.5554L139.04 57.8578L139.586 58.273L140.122 58.6944L140.648 59.1221L141.164 59.5559L141.67 59.996L142.166 60.4421L142.652 60.8942L143.129 61.3523L143.596 61.8164L144.054 62.2864L144.502 62.7622L144.941 63.2439L145.37 63.7315L145.51 63.8959ZM126.047 51.0271C127.722 51.6174 129.452 50.3233 129.364 48.5494C129.306 47.5405 128.663 46.6755 127.71 46.3356L127.541 46.2747L126.703 45.9837L125.853 45.7018L124.992 45.4286L124.119 45.1644L123.236 44.9093L122.341 44.6632L121.435 44.4262L120.517 44.1984L119.588 43.9798L118.648 43.7704L117.79 43.59C116.11 43.2526 114.608 44.6536 114.824 46.3541C114.969 47.4138 115.748 48.2476 116.795 48.4668L117.595 48.6352L118.477 48.8316L119.347 49.0363L120.205 49.2494L121.051 49.4707L121.885 49.7L122.708 49.9375L123.518 50.1829L124.317 50.4362L125.104 50.6973L125.879 50.9662L126.047 51.0271ZM102.931 49.0026C104.145 48.7635 104.995 47.6814 104.941 46.4454C104.868 44.9254 103.471 43.8291 101.978 44.1171L101.659 44.1772L101 44.3103L100.346 44.451L99.6987 44.5989L99.0577 44.7544L98.4228 44.9171L97.7944 45.0872L97.1723 45.2642L96.5561 45.4485L95.9464 45.6398L95.3429 45.8381L94.7457 46.0432L94.1547 46.2551L93.5699 46.4738L92.9913 46.6992L92.419 46.9312L91.956 47.1263C90.26 47.8634 89.9211 50.1034 91.3254 51.3093C92.0541 51.9237 93.0428 52.0721 93.9201 51.6998L94.3203 51.5312L94.8297 51.3247L95.3451 51.1239L95.8666 50.9289L96.3942 50.7396L96.9281 50.5563L97.468 50.3789L98.0141 50.2075L98.5666 50.0423L99.1255 49.8833L99.6906 49.7304L100.262 49.5839L100.84 49.4438L101.424 49.3102L102.015 49.1831L102.612 49.0627L102.931 49.0026ZM82.3424 59.3983C83.4329 58.2959 83.2774 56.5028 82.0129 55.604C81.0153 54.9081 79.6826 55.0238 78.8199 55.8818L78.5131 56.1851L78.1252 56.5787L77.7433 56.9765L77.3673 57.3783L76.9973 57.7841L76.6333 58.1936L76.2749 58.6073L75.9227 59.0244L75.5764 59.445L75.2359 59.8693L74.9011 60.2971L74.5722 60.7282L74.249 61.1628L73.9318 61.6004L73.6202 62.0412L73.3143 62.4851L73.0143 62.932L72.7198 63.3817L72.431 63.8343L72.2657 64.1001C71.3089 65.6664 72.3063 67.6814 74.1325 67.8784C75.0899 67.9733 76.0016 67.5227 76.5076 66.7042L76.6425 66.4872L76.9 66.0835L77.1624 65.6827L77.4298 65.2847L77.7018 64.8898L77.979 64.4978L78.261 64.1088L78.548 63.7229L78.8399 63.3403L79.1367 62.9609L79.4386 62.5848L79.7457 62.2118L80.0575 61.8424L80.3743 61.4767L80.6964 61.1144L81.0236 60.7556L81.3558 60.4005L81.6931 60.0492L82.0356 59.7016L82.3424 59.3983ZM71.0742 79.7144C71.4901 77.9674 70.0007 76.3708 68.2271 76.6738C67.2468 76.8502 66.4769 77.5698 66.2379 78.5375L66.1595 78.8533L66.0395 79.3568L65.9244 79.8608L65.8141 80.3652L65.7087 80.8698L65.6081 81.3744L65.5123 81.8794L65.4212 82.3846L65.3349 82.8895L65.2534 83.3944L65.1766 83.8993L65.1044 84.4037L65.0369 84.9082L64.9741 85.4121L64.9159 85.9155L64.8623 86.4189L64.8132 86.9215L64.7688 87.4234L64.729 87.9247L64.6935 88.4252L64.6697 88.81C64.5717 90.6173 66.354 91.9176 68.0471 91.2761C68.9663 90.9183 69.578 90.0791 69.639 89.0947L69.66 88.7542L69.6923 88.2977L69.7287 87.8404L69.7692 87.3825L69.8139 86.9241L69.8628 86.4653L69.9159 86.0058L69.9732 85.546L70.0348 85.0862L70.1006 84.6259L70.1707 84.1657L70.245 83.7054L70.3237 83.245L70.4065 82.785L70.4939 82.3251L70.5855 81.8651L70.6815 81.4057L70.7818 80.9467L70.8866 80.4882L70.9958 80.0302L71.0742 79.7144ZM70.8435 103.161C70.5572 102.038 69.539 101.261 68.3798 101.284C66.7753 101.323 65.6284 102.829 66.019 104.385L66.056 104.534L66.1683 104.968L66.2846 105.398L66.4048 105.825L66.5291 106.249L66.6573 106.67L66.7895 107.087L66.9255 107.501L67.0656 107.912L67.2096 108.319L67.3575 108.722L67.5094 109.122L67.6653 109.518L67.825 109.91L67.9886 110.298L68.1562 110.683L68.3279 111.063L68.5033 111.44L68.6827 111.812L68.8661 112.18L69.0536 112.544L69.2449 112.903L69.4402 113.258L69.6395 113.609L69.8428 113.955L70.0349 114.272C70.9689 115.771 73.0958 115.859 74.1547 114.444C74.7596 113.617 74.8051 112.533 74.2706 111.658L74.1162 111.403L73.9491 111.119L73.7847 110.829L73.6225 110.535L73.4632 110.235L73.3064 109.931L73.1523 109.621L73.0009 109.307L72.8522 108.988L72.7063 108.665L72.5634 108.337L72.4232 108.005L72.2859 107.668L72.1518 107.327L72.0206 106.981L71.8924 106.632L71.7672 106.278L71.6452 105.92L71.5263 105.559L71.4106 105.193L71.298 104.824L71.1887 104.451L71.0828 104.075L70.98 103.694L70.8806 103.311L70.8435 103.161ZM84.0831 118.249C82.2756 118.277 81.1 120.15 81.8609 121.792C82.281 122.68 83.1649 123.237 84.1489 123.226H84.3456L84.731 123.216L85.1178 123.196L85.5062 123.166L85.8963 123.126L86.288 123.076L86.6807 123.015L87.0746 122.945L87.47 122.865L87.8663 122.774L88.2634 122.674L88.6614 122.563L89.0605 122.442L89.4603 122.312L89.8609 122.171L90.2623 122.02L90.6643 121.859L91.0673 121.689L91.4704 121.508L91.8745 121.317C92.9398 120.797 93.9319 120.192 94.8728 119.47C96.2938 118.375 96.1248 116.187 94.5554 115.317C93.6798 114.84 92.6305 114.921 91.8376 115.526C91.0503 116.128 90.2829 116.564 89.3885 116.987L89.0763 117.127L88.7678 117.258L88.4625 117.38L88.1605 117.493L87.8619 117.598L87.5667 117.694L87.275 117.783L86.9865 117.863L86.7012 117.935L86.4196 117.999L86.1413 118.056L85.8659 118.105L85.5938 118.147L85.3251 118.181L85.0593 118.209L84.7964 118.229L84.5365 118.242L84.2798 118.249H84.0831ZM95.3687 105.022C95.9785 106.662 98.0309 107.184 99.3493 106.031C100.121 105.344 100.395 104.274 100.04 103.303L99.8291 102.721L99.5633 102.011L99.2915 101.31L99.0139 100.617L98.7305 99.9337L98.4414 99.2585L98.1466 98.592L97.8462 97.934L97.5401 97.2846L97.2285 96.6437L96.9115 96.0113L96.5889 95.3873L96.2609 94.7718L95.9276 94.1647L95.7595 93.8675C94.8912 92.3597 92.8027 92.1856 91.6855 93.5163C91.0218 94.3255 90.9244 95.4343 91.4425 96.345L91.5797 96.5876L91.8829 97.1397L92.1816 97.7003L92.4757 98.2693L92.7654 98.8471L93.0505 99.4336L93.3309 100.029L93.6066 100.632L93.8775 101.245L94.1436 101.866L94.4047 102.496L94.6609 103.135L94.912 103.783L95.1582 104.44L95.3687 105.022ZM82.7012 85.3811C84.0435 86.5257 86.1021 85.9675 86.6801 84.2986C87.0064 83.3323 86.7204 82.2744 85.9471 81.6077L85.5681 81.277L85.1119 80.8902L84.6521 80.5113L84.1888 80.1402L83.7218 79.777L83.2515 79.4217L82.7776 79.0739L82.3005 78.734L81.8201 78.4019L81.3367 78.0775L80.8498 77.7605L80.3599 77.4514L79.8674 77.15L79.3717 76.8559L78.8731 76.5695L78.3718 76.2906L77.8678 76.0192L77.3612 75.7552L77.2178 75.683C75.7154 74.9447 73.9372 75.8546 73.6574 77.5064C73.4824 78.5965 74.0223 79.648 75.0088 80.1434L75.0916 80.1851L75.5379 80.4176L75.9819 80.6567L76.4233 80.9023L76.8622 81.1544L77.2985 81.4132L77.7326 81.6788L78.1637 81.951L78.592 82.2298L79.018 82.5156L79.4411 82.8081L79.8613 83.1075L80.2788 83.4138L80.6934 83.7271L81.1051 84.0473L81.5138 84.3745L81.9196 84.709L82.3222 85.0504L82.7012 85.3811ZM61.6014 76.1671C63.3745 76.3534 64.7616 74.6918 64.2566 72.9793C63.963 72.0159 63.1437 71.3322 62.1422 71.2192L61.823 71.1825L61.268 71.125L60.7122 71.0738L60.1558 71.0288L59.5991 70.99L59.0418 70.9573L58.4839 70.9308L57.9258 70.9103L57.3675 70.8958L56.8089 70.8872L56.2498 70.8846L55.6907 70.8878L55.1317 70.897L54.5725 70.9119L54.0132 70.9327L53.4543 70.9592L52.8952 70.9913L52.3363 71.0291L51.778 71.0725L51.7047 71.079C49.9295 71.2517 48.9039 73.1555 49.7405 74.7333C50.2203 75.6185 51.1607 76.1246 52.1641 76.0351L52.6974 75.9934L53.2062 75.9589L53.7147 75.9297L54.2232 75.9056L54.7312 75.8868L55.2389 75.8733L55.7462 75.865L56.253 75.862L56.7591 75.8643L57.2647 75.872L57.7698 75.8851L58.2741 75.9037L58.7776 75.9277L59.2803 75.9572L59.7823 75.9922L60.2833 76.0327L60.7832 76.0788L61.2822 76.1304L61.6014 76.1671ZM38.2126 79.067C39.5798 78.5795 40.2452 77.0415 39.6578 75.7126C39.1318 74.5226 37.7783 73.9426 36.5522 74.3747L36.445 74.4121L35.9161 74.6019L35.3888 74.7961L34.8633 74.9949L34.3399 75.198L33.8183 75.4056L33.2986 75.6176L32.7811 75.8338L32.2658 76.0544L31.7524 76.2792L31.2414 76.5084L30.7326 76.7416L30.2262 76.979L29.7221 77.2205L29.2204 77.4662L28.7211 77.716L28.2244 77.9697L27.7304 78.2275L27.2389 78.4891L27.093 78.5685C25.476 79.4628 25.3547 81.7302 26.8682 82.7928C27.6509 83.3328 28.6532 83.3878 29.4885 82.9315L29.5969 82.8726L30.0511 82.6307L30.5078 82.3925L30.9668 82.1579L31.4282 81.9272L31.892 81.7001L32.3579 81.4768L32.8262 81.2573L33.2967 81.0415L33.769 80.8298L34.2434 80.622L34.7199 80.4181L35.1983 80.2182L35.6785 80.0224L36.1605 79.8305L36.6443 79.6428L37.1296 79.4592L37.6167 79.2797L38.1054 79.1044L38.2126 79.067ZM17.8612 91.2093C19.1731 89.9742 18.7915 87.8101 17.1336 87.0996C16.2196 86.7161 15.189 86.9 14.4621 87.5733L14.3643 87.6639L13.9763 88.0301L13.5923 88.3996L13.213 88.7718L12.8378 89.1471L12.4672 89.5255L12.1011 89.9066L11.7396 90.2906L11.3826 90.6775L11.0304 91.0673L10.6829 91.4599L10.3401 91.8552L10.0023 92.2533L9.66941 92.6541L9.34134 93.0577L9.01843 93.4638L8.70063 93.8725L8.38786 94.284L8.08032 94.6982L7.77832 95.1146L7.55869 95.4245C6.57204 96.8378 7.28176 98.7958 8.94352 99.2535C9.96538 99.5262 11.0262 99.1429 11.6365 98.2786L11.8234 98.0148L12.093 97.6432L12.3673 97.2738L12.6467 96.9062L12.9313 96.5402L13.2207 96.1761L13.5149 95.8141L13.8141 95.4539L14.1181 95.0958L14.4267 94.7397L14.7402 94.3857L15.0582 94.0338L15.3808 93.6841L15.708 93.3365L16.0397 92.9912L16.3758 92.6482L16.7162 92.3076L17.0611 91.9692L17.4101 91.6334L17.7634 91.2999L17.8612 91.2093ZM6.10815 110.868C6.39622 109.235 5.06452 107.795 3.4137 107.949C2.30088 108.062 1.41329 108.885 1.2099 109.984L1.18657 110.108L1.10289 110.593L1.02686 111.08L0.958603 111.569L0.89819 112.058L0.845554 112.548L0.800945 113.04L0.764236 113.533L0.735741 114.027L0.715333 114.522L0.703138 115.017L0.699219 115.514L0.703636 116.011L0.716515 116.509L0.737793 117.008L0.76772 117.508L0.806108 118.008L0.853269 118.508L0.909016 119.009L0.97366 119.51L1.04708 120.012L1.12927 120.514L1.17985 120.792C1.40719 121.97 2.4339 122.819 3.63495 122.815C5.19455 122.802 6.35895 121.393 6.06914 119.86L6.03399 119.666L5.96561 119.249L5.90451 118.832L5.85094 118.415L5.80453 117.999L5.76546 117.584L5.73354 117.168L5.70871 116.753L5.69105 116.339L5.68028 115.925L5.67661 115.511L5.67991 115.098L5.68999 114.685L5.70703 114.273L5.7308 113.861L5.76141 113.45L5.79868 113.039L5.84273 112.628L5.89344 112.218L5.95062 111.809L6.01445 111.4L6.08482 110.992L6.10815 110.868ZM10.8439 133.174C10.0257 131.645 7.96441 131.386 6.79484 132.669C6.09421 133.451 5.95541 134.568 6.44288 135.499L6.52569 135.657L6.77419 136.122L7.02667 136.585L7.283 137.044L7.54319 137.5L7.80718 137.953L8.07522 138.404L8.34686 138.851L8.62229 139.296L8.9014 139.737L9.18418 140.176L9.47069 140.612L9.76093 141.045L10.0547 141.475L10.3519 141.902L10.6527 142.327L10.9571 142.748L11.2649 143.167L11.5761 143.582L11.8908 143.995L12.0699 144.226C13.1526 145.6 15.2667 145.469 16.168 143.967C16.693 143.078 16.6251 141.974 15.9897 141.158L15.8365 140.961L15.5476 140.582L15.2619 140.2L14.9795 139.817L14.7006 139.43L14.4249 139.041L14.1524 138.65L13.8833 138.256L13.6179 137.86L13.3557 137.461L13.097 137.06L12.8416 136.656L12.5898 136.249L12.3415 135.84L12.0968 135.429L11.8556 135.015L11.6179 134.598L11.3839 134.178L11.1534 133.757L10.9267 133.332L10.8439 133.174ZM26.0595 151.353C24.7003 150.27 22.6918 150.859 22.1372 152.509C21.8117 153.503 22.1286 154.573 22.9406 155.232L23.1685 155.416L23.576 155.742L23.986 156.065L24.3984 156.385L24.8132 156.703L25.2303 157.018L25.6498 157.331L26.0715 157.641L26.4954 157.949L26.9216 158.254L27.3501 158.556L27.7805 158.856L28.2131 159.154L28.6479 159.449L29.0847 159.742L29.5236 160.032L29.9645 160.32L30.4074 160.605L30.8522 160.888L31.2934 161.165C32.806 162.1 34.7668 161.214 35.0664 159.46C35.2283 158.46 34.7845 157.482 33.9277 156.942L33.511 156.68L33.0907 156.413L32.6725 156.144L32.2566 155.872L31.8428 155.599L31.431 155.323L31.0215 155.045L30.6142 154.764L30.209 154.482L29.8063 154.198L29.4059 153.911L29.0076 153.622L28.6118 153.331L28.2185 153.037L27.8274 152.742L27.4386 152.444L27.0525 152.144L26.6687 151.842L26.2873 151.537L26.0595 151.353ZM46.8286 163.669C45.1942 162.969 43.3859 164.134 43.3493 165.913C43.3369 166.926 43.9215 167.829 44.8482 168.236L45.4702 168.504L45.9637 168.715L46.4586 168.923L46.9542 169.128L47.4507 169.332L47.9484 169.534L48.4471 169.733L48.9467 169.931L49.4472 170.126L49.9487 170.32L50.4509 170.511L50.954 170.7L51.458 170.887L51.9627 171.073L52.4681 171.256L52.9743 171.437L53.4814 171.616L53.989 171.793L54.3113 171.904C55.9002 172.443 57.5374 171.31 57.6055 169.635C57.6369 168.531 56.9671 167.559 55.9239 167.195L55.6199 167.091L55.1307 166.92L54.6423 166.747L54.1546 166.573L53.6678 166.396L53.1818 166.218L52.6969 166.038L52.2129 165.856L51.7297 165.672L51.2477 165.486L50.7667 165.298L50.2866 165.108L49.8078 164.917L49.33 164.723L48.8532 164.527L48.3776 164.33L47.9034 164.131L47.4303 163.929L46.8286 163.669ZM70.0342 171.257C68.236 170.836 66.624 172.44 67.0363 174.242C67.2557 175.167 67.9619 175.88 68.8879 176.101L69.4068 176.223L69.9228 176.342L70.4385 176.46L70.9541 176.576L71.4696 176.691L71.9847 176.803L72.4995 176.914L73.0141 177.023L73.5284 177.131L74.0424 177.237L74.5559 177.341L75.0692 177.444L75.582 177.545L76.0943 177.644L76.6064 177.742L77.1177 177.838L77.6286 177.932L78.139 178.025L78.7817 178.14C80.6404 178.46 82.1641 176.688 81.5694 174.896C81.2733 174.027 80.5431 173.396 79.6377 173.236L79.0225 173.127L78.5262 173.036L78.0293 172.945L77.5319 172.851L77.0343 172.756L76.5362 172.66L76.0378 172.562L75.5388 172.462L75.0397 172.361L74.5403 172.258L74.0406 172.153L73.5407 172.047L73.0405 171.939L72.5401 171.83L72.0398 171.719L71.5392 171.606L71.0385 171.492L70.5378 171.376L70.0342 171.257ZM94.2348 175.212C92.5158 175.059 91.1697 176.634 91.592 178.309C91.8606 179.332 92.718 180.065 93.7713 180.168L94.5059 180.236C95.1381 180.293 95.77 180.347 96.4026 180.399C98.8792 180.596 101.357 180.751 103.839 180.849C105.576 180.909 106.837 179.235 106.298 177.581C105.964 176.588 105.075 175.92 104.028 175.875C103.122 175.839 102.216 175.794 101.31 175.745C100.865 175.72 100.421 175.693 99.9759 175.666C98.059 175.542 96.1471 175.393 94.2348 175.212ZM143.236 173.294C141.493 173.567 140.574 175.492 141.463 177.018C141.989 177.897 142.966 178.366 143.982 178.216C145.652 177.964 147.319 177.693 148.984 177.412C150.097 177.221 151.207 177.025 152.318 176.823C152.841 176.726 153.363 176.629 153.885 176.531C155.628 176.195 156.474 174.209 155.503 172.72C154.941 171.875 153.957 171.456 152.959 171.64L151.972 171.825C149.067 172.36 146.156 172.855 143.236 173.294ZM167.406 168.488C165.66 168.926 164.942 171.011 166.046 172.434C166.661 173.211 167.648 173.555 168.612 173.317L169.519 173.09L170.103 172.942L170.688 172.793L171.274 172.641L171.859 172.488L172.446 172.334L173.032 172.178L173.619 172.02L174.207 171.861L174.794 171.7L175.382 171.537L175.97 171.373L176.559 171.207L177.147 171.039L177.736 170.87L178.317 170.702C180.065 170.187 180.688 168.048 179.492 166.671C178.848 165.943 177.859 165.653 176.924 165.923L176.355 166.088L175.779 166.254L175.202 166.418L174.625 166.581L174.049 166.741L173.473 166.901L172.897 167.059L172.322 167.215L171.746 167.369L171.171 167.522L170.597 167.674L170.022 167.824L169.448 167.972L168.875 168.119L168.302 168.264L167.406 168.488ZM190.952 161.336C189.283 161.954 188.784 164.046 189.981 165.361C190.672 166.102 191.714 166.353 192.668 166.008L193.049 165.869L193.635 165.653L194.221 165.435L194.806 165.215L195.391 164.993L195.976 164.769L196.56 164.544L197.143 164.317L197.726 164.088L198.308 163.857L198.89 163.624L199.471 163.389L200.052 163.152L200.631 162.914L201.21 162.673L201.789 162.431L202.047 162.322C203.624 161.646 204.063 159.644 202.922 158.364C202.203 157.574 201.087 157.326 200.101 157.741L199.295 158.079L198.73 158.314L198.165 158.546L197.599 158.777L197.033 159.006L196.466 159.233L195.898 159.458L195.329 159.682L194.76 159.903L194.19 160.123L193.62 160.341L193.049 160.558L192.478 160.772L191.906 160.985L191.333 161.196L190.952 161.336ZM213.406 151.455C211.856 152.285 211.62 154.394 212.951 155.545C213.736 156.211 214.824 156.332 215.736 155.854L215.958 155.737L216.51 155.443L217.061 155.147L217.611 154.849L218.159 154.549L218.706 154.246L219.252 153.942L219.796 153.635L220.339 153.327L220.881 153.016L221.42 152.703L221.959 152.388L222.496 152.071L223.031 151.752L223.565 151.431L224.097 151.107L224.525 150.844C225.873 150.005 226.11 148.163 225.019 147.008C224.2 146.156 222.92 145.992 221.912 146.608L221.502 146.86L220.988 147.172L220.473 147.483L219.955 147.791L219.437 148.097L218.916 148.402L218.394 148.704L217.87 149.005L217.345 149.303L216.819 149.6L216.29 149.895L215.761 150.187L215.23 150.478L214.697 150.767L214.163 151.053L213.628 151.338L213.406 151.455ZM311.41 63.9767C309.9 66.0307 308.367 68.0895 306.821 70.1416L341.497 112.736C342.01 113.367 342.715 114.008 343.491 114.468C344.023 114.783 344.547 114.994 344.984 115.008L351.051 114.951L321.999 49.0483C318.696 53.8991 315.12 58.9289 311.41 63.9767ZM303.732 74.2068C295.404 85.0841 286.865 95.5692 279.561 103.982L290.963 129.846C291.007 129.948 291.044 130.05 291.074 130.153C291.198 130.518 291.262 130.884 291.265 131.243C291.271 131.836 291.119 132.385 290.812 132.871C290.491 133.382 290.035 133.771 289.449 134.018C289.061 134.183 288.626 134.272 288.151 134.277L285.462 134.302L285.394 134.302C284.583 134.284 283.826 134.024 283.171 133.636C282.53 133.256 281.95 132.728 281.528 132.209L268.444 116.138C265.645 118.971 263.403 120.988 261.921 121.952C260.617 122.8 259.29 123.224 258.047 123.287C256.72 123.354 255.496 123.007 254.478 122.314C253.455 121.619 252.679 120.601 252.25 119.332C251.856 118.164 251.765 116.782 252.074 115.26C252.454 113.386 253.652 110.236 255.486 106.154C255.002 106.319 254.464 106.336 253.939 106.171L233.884 99.8121C233.261 99.6144 232.561 99.2683 231.962 98.8039C231.355 98.3328 230.832 97.7245 230.521 96.9847L230.522 96.9839L230.491 96.9069L229.527 94.3968C229.357 93.9543 229.28 93.5188 229.291 93.0998C229.306 92.464 229.5 91.8982 229.856 91.4128C230.194 90.952 230.651 90.6089 231.213 90.3931C231.6 90.2444 232.025 90.1667 232.475 90.1659C232.519 90.1651 232.563 90.1654 232.607 90.167L261.258 91.2833C261.75 91.3007 262.203 91.4602 262.58 91.7209C267.745 81.8219 274.348 70.0678 281.378 58.3899L228.464 41.6133C227.19 41.2095 225.773 40.5116 224.576 39.5832C223.464 38.7209 222.522 37.6416 221.987 36.3709L221.989 36.3701L221.958 36.2932L219.351 29.508C219.095 28.8419 218.979 28.2048 218.994 27.6085C219.013 26.7878 219.259 26.0632 219.709 25.4487C220.141 24.8589 220.736 24.4164 221.475 24.1326C222.066 23.9054 222.742 23.7918 223.485 23.8015C223.519 23.8013 223.553 23.8016 223.588 23.8028L246.13 24.6812L246.416 17.0713C246.464 15.7022 247.614 14.6315 248.983 14.6798L256.943 14.9794C258.312 15.0276 259.382 16.1767 259.334 17.5458L259.047 25.1845L269.202 25.5802L269.663 13.3302C269.711 11.9611 270.861 10.8904 272.23 10.9387L280.189 11.2383C281.559 11.2866 282.629 12.4357 282.581 13.8048L282.119 26.0835L301.035 26.8206C301.273 26.829 301.501 26.8706 301.717 26.9406C310.03 15.1806 317.647 6.03485 322.888 2.71898C325.748 0.90926 328.693 0.467703 331.358 0.992383C332.939 1.30359 334.414 1.9608 335.709 2.87881C336.977 3.77823 338.069 4.93454 338.91 6.26406C340.46 8.71344 341.157 11.7501 340.546 14.8549C339.317 21.094 333.394 31.8247 325.276 44.1573L332.373 60.2577L343.62 55.3177C344.876 54.7701 346.339 55.3446 346.886 56.6009L350.09 63.8939C350.637 65.1503 350.063 66.6128 348.806 67.1604L337.588 72.0879L341.687 81.3856L348.682 78.3129C349.939 77.7653 351.401 78.3398 351.949 79.5962L355.152 86.8892C355.7 88.1455 355.125 89.608 353.869 90.1556L346.902 93.2158L355.998 113.85C356.034 113.931 356.065 114.013 356.091 114.095C356.338 114.736 356.463 115.361 356.469 115.953C356.476 116.735 356.282 117.448 355.89 118.07C355.484 118.716 354.9 119.211 354.143 119.531C353.591 119.764 352.955 119.892 352.24 119.898L344.971 119.967L344.903 119.966C343.516 119.936 342.167 119.458 340.963 118.745C339.671 117.98 338.5 116.914 337.647 115.866L303.732 74.2068ZM275.941 108.094C274.522 109.682 273.167 111.17 271.889 112.54C271.961 112.609 272.03 112.684 272.095 112.764L284.973 128.582L275.941 108.094ZM287.914 47.7584C291.419 42.1797 294.96 36.7481 298.421 31.6836L224.385 28.7986L226.555 34.4463C226.73 34.8608 227.12 35.2765 227.609 35.6556C228.311 36.2003 229.171 36.619 229.961 36.8692L284.035 54.0136C285.32 51.9144 286.615 49.8254 287.914 47.7584ZM256.999 102.88C257.974 100.819 259.071 98.5858 260.273 96.2097L235.999 95.264L255.436 101.426C256.178 101.66 256.732 102.21 256.999 102.88ZM334.375 64.7991L335.586 67.5465L344.545 63.6115L343.337 60.8626L334.375 64.7991ZM343.689 85.927L344.9 88.6743L349.607 86.6067L348.4 83.8579L343.689 85.927ZM251.087 24.8743L254.089 24.9913L254.283 19.8438L251.281 19.7308L251.087 24.8743ZM274.159 25.7734L277.161 25.8904L277.53 16.1028L274.528 15.9898L274.159 25.7734Z" fill="#E1D9D0"/>
<path d="M45.3795 343.513C45.0617 343.867 44.6733 343.915 44.4702 343.915C44.2672 343.915 43.8788 343.862 43.561 343.513C33.1354 331.896 26.9118 321.762 26.9118 316.408C26.9118 306.724 34.7906 298.849 44.4702 298.849C54.1499 298.849 62.0287 306.728 62.0287 316.408C62.0287 321.762 55.8051 331.896 45.3795 343.513ZM44.4702 294.25C32.2526 294.25 22.3125 304.19 22.3125 316.408C22.3125 325.386 33.4841 339.166 40.1402 346.586C41.2437 347.813 42.8194 348.519 44.4702 348.519C46.121 348.519 47.7012 347.817 48.8003 346.586C55.4564 339.17 66.628 325.386 66.628 316.408C66.628 304.19 56.6879 294.25 44.4702 294.25Z" fill="#E1D9D0"/>
<path d="M44.4817 321.798C40.7343 321.798 37.6887 318.748 37.6887 315.005C37.6887 311.262 40.7387 308.212 44.4817 308.212C48.2246 308.212 51.2746 311.258 51.2746 315.005C51.2746 318.753 48.2246 321.798 44.4817 321.798ZM44.4817 303.82C38.3155 303.82 33.2969 308.839 33.2969 315.005C33.2969 321.171 38.3155 326.19 44.4817 326.19C50.6479 326.19 55.6665 321.171 55.6665 315.005C55.6665 308.839 50.6479 303.82 44.4817 303.82Z" fill="#E1D9D0"/>
</g>
<defs>
<clipPath id="clip0_538_4955">
<rect width="356.31" height="348" fill="white" transform="translate(0.691406 0.669922)"/>
</clipPath>
</defs>
</svg>
