<svg width="140" height="211" viewBox="0 0 140 211" fill="none" xmlns="http://www.w3.org/2000/svg">
<path d="M136.926 205.4L89.8734 210.346C89.3023 210.421 88.7215 210.327 88.1994 210.075C87.6773 209.823 87.2357 209.424 86.9268 208.925C86.596 208.346 86.4279 207.686 86.4413 207.018C86.4547 206.349 86.649 205.699 87.0027 205.138C90.6744 199.012 95.2844 197.721 98.9887 196.684C100.921 196.143 102.589 195.676 104.039 194.65C107.376 192.29 108.403 186.21 108.538 183.858L103.939 140.097C103.262 139.793 102.668 139.323 102.209 138.729C101.75 138.136 101.441 137.436 101.309 136.692C99.8829 128.502 94.2152 122.144 90.9526 119.074C89.4784 117.955 88.1582 116.637 87.0281 115.157C78.8808 104.485 74.1467 88.0446 72.9579 66.2907C72.3757 54.4537 72.7353 42.5926 74.0331 30.8248C73.8585 23.955 92.1466 21.8296 94.2616 21.6073C96.3765 21.385 114.709 19.6603 115.965 26.4188C117.93 32.6526 119.576 38.9861 120.894 45.3932C120.966 45.6903 120.979 45.9989 120.933 46.3008C120.886 46.6026 120.781 46.8915 120.623 47.1504C120.465 47.4092 120.258 47.6327 120.014 47.8076C119.769 47.9824 119.493 48.1051 119.201 48.1683C118.909 48.2315 118.607 48.2339 118.314 48.1754C118.02 48.1169 117.741 47.9987 117.492 47.8278C117.243 47.6569 117.031 47.4368 116.866 47.1806C116.702 46.9243 116.589 46.6371 116.535 46.3361C115.282 40.3886 113.949 35.257 112.883 31.5809C107.595 34.9095 97.3524 36.0951 95.8014 36.2582C94.2505 36.4212 83.9288 37.3958 78.0725 35.2163C77.1233 45.4633 76.9025 55.7711 77.4119 66.0583C78.5489 86.8606 82.965 102.438 90.537 112.357C93.8075 116.641 98.7819 118.88 103.847 118.347L103.857 118.346C106.38 118.083 108.789 117.154 110.85 115.65C112.911 114.146 114.553 112.118 115.615 109.765C120.361 99.0975 121.722 83.6481 119.589 64.9328C119.555 64.6348 119.579 64.3332 119.66 64.0453C119.74 63.7574 119.875 63.4888 120.057 63.2547C120.239 63.0207 120.464 62.8259 120.72 62.6814C120.976 62.5369 121.258 62.4456 121.549 62.4126C121.84 62.3796 122.134 62.4057 122.416 62.4892C122.698 62.5728 122.961 62.7123 123.191 62.8997C123.42 63.0871 123.612 63.3187 123.754 63.5814C123.897 63.8441 123.987 64.1327 124.021 64.4306C126.289 84.2032 124.832 100.087 119.675 111.675C119.061 113.045 118.291 114.335 117.38 115.519L117.392 115.528C114.588 119.522 109.93 127.462 110.238 135.754C110.264 136.509 110.107 137.258 109.782 137.934C109.456 138.61 108.973 139.193 108.374 139.631L112.971 183.368C113.651 185.66 116.041 191.373 119.805 192.992C121.437 193.694 123.166 193.805 125.169 193.932C129.006 194.177 133.784 194.481 138.65 199.709C139.113 200.184 139.438 200.78 139.59 201.431C139.742 202.082 139.715 202.763 139.512 203.397C139.314 203.95 138.965 204.432 138.507 204.787C138.049 205.142 137.5 205.355 136.926 205.4ZM95.323 31.7163C104.338 30.7688 109.748 28.5164 111.249 27.2282C109.511 26.2804 103.753 25.2019 94.7378 26.1494C85.7228 27.0969 80.3128 29.3493 78.8118 30.6375C80.5494 31.5861 86.3075 32.6639 95.323 31.7163ZM108.661 121.892C107.263 122.395 105.812 122.729 104.337 122.888C104.333 122.888 104.329 122.888 104.324 122.889C102.924 123.033 101.512 123.017 100.114 122.84C102.573 126.391 104.817 130.823 105.703 135.914C105.708 135.921 105.715 135.926 105.722 135.929C105.729 135.932 105.737 135.933 105.745 135.932C105.753 135.931 105.761 135.929 105.768 135.924C105.774 135.919 105.779 135.913 105.783 135.906C105.655 132.492 106.177 127.69 108.661 121.892ZM124.914 198.489C122.708 198.349 120.426 198.203 118.095 197.2C115.236 195.97 113.107 193.512 111.6 191.076C110.67 193.77 109.132 196.61 106.589 198.409C104.517 199.875 102.316 200.492 100.187 201.088C97.2356 201.915 94.6186 202.647 92.2384 205.505L133.607 201.157C130.685 198.857 127.973 198.684 124.914 198.489Z" fill="#E1D9D0"/>
<path d="M116.598 89.3716C116.536 89.9713 116.245 90.5205 115.788 90.8993C115.331 91.2781 114.746 91.4556 114.159 91.3931C113.573 91.3307 113.033 91.0332 112.658 90.5658C112.283 90.0984 112.104 89.4991 112.158 88.8987C112.946 80.777 112.933 73.3762 112.122 66.9024C112.046 66.3014 112.207 65.6955 112.569 65.2181C112.931 64.7406 113.463 64.4308 114.05 64.3566C114.637 64.2824 115.23 64.4501 115.698 64.8226C116.167 65.1952 116.472 65.7421 116.547 66.3431C117.399 73.1594 117.418 80.907 116.598 89.3716Z" fill="#E1D9D0"/>
<path d="M112.155 50.9325C112.739 50.8397 113.336 50.9872 113.816 51.3429C114.295 51.6986 114.619 52.2336 114.716 52.8309C114.99 54.5543 115.061 55.4692 115.142 56.5283C115.188 57.1155 115.239 57.781 115.335 58.6935C115.398 59.2958 115.225 59.898 114.854 60.3676C114.483 60.8372 113.944 61.1358 113.356 61.1976C112.767 61.2594 112.178 61.0794 111.718 60.6973C111.257 60.3151 110.963 59.762 110.899 59.1597C110.797 58.1828 110.742 57.4832 110.695 56.8659C110.616 55.8292 110.558 55.0818 110.313 53.5439C110.218 52.9459 110.358 52.3348 110.704 51.8451C111.049 51.3553 111.571 51.0271 112.155 50.9325Z" fill="#E1D9D0"/>
<path d="M3.04665 185.29L49.6399 193.506C50.2043 193.62 50.7903 193.567 51.3287 193.352C51.8671 193.137 52.3355 192.77 52.6784 192.293C53.0488 191.74 53.2625 191.093 53.2958 190.425C53.329 189.757 53.1806 189.095 52.8669 188.511C49.6315 182.144 45.1227 180.534 41.4998 179.241C39.6103 178.567 37.9785 177.984 36.6035 176.859C33.4397 174.272 32.8386 168.136 32.8683 165.78L40.5092 122.446C41.2057 122.19 41.831 121.763 42.33 121.203C42.829 120.643 43.1861 119.966 43.3698 119.234C45.3639 111.163 51.4613 105.216 54.93 102.381C56.4788 101.367 57.8877 100.145 59.1183 98.747C67.9902 88.6698 73.8596 72.5992 76.563 50.9813C77.9694 39.2137 78.4381 27.3564 77.9644 15.5268C78.6177 8.68581 60.5225 5.28992 58.4281 4.92064C56.3338 4.55135 38.1667 1.55205 36.4424 8.20646C34.0465 14.288 31.9634 20.4913 30.2018 26.7908C30.109 27.0821 30.0742 27.3891 30.0994 27.6934C30.1247 27.9978 30.2096 28.2934 30.3491 28.5626C30.4885 28.8318 30.6797 29.0692 30.9112 29.2607C31.1427 29.4522 31.4098 29.5938 31.6967 29.6772C31.9837 29.7606 32.2845 29.7841 32.5815 29.7462C32.8784 29.7084 33.1653 29.6099 33.4253 29.4568C33.6852 29.3037 33.9128 29.0989 34.0946 28.8548C34.2764 28.6106 34.4086 28.332 34.4835 28.0354C36.149 22.1899 37.8368 17.1637 39.1564 13.5709C44.1992 17.2603 54.3342 19.1576 55.87 19.4284C57.4058 19.6992 67.6344 21.3914 73.6285 19.6257C73.8606 29.9141 73.3618 40.2121 72.136 50.4387C69.5506 71.111 64.0587 86.3423 55.8133 95.7091C52.2519 99.7541 47.1335 101.641 42.1177 100.756L42.1078 100.754C39.6096 100.316 37.2708 99.2208 35.3198 97.5767C33.3689 95.9325 31.8726 93.7954 30.9773 91.3743C26.9871 80.4015 26.7067 64.8947 30.14 46.3738C30.1944 46.0789 30.1915 45.7764 30.1315 45.4836C30.0715 45.1908 29.9556 44.9134 29.7904 44.6672C29.6252 44.4211 29.414 44.211 29.1687 44.049C28.9234 43.887 28.649 43.7762 28.361 43.7231C28.073 43.6699 27.7772 43.6753 27.4903 43.739C27.2034 43.8027 26.9312 43.9235 26.6891 44.0944C26.4471 44.2653 26.2399 44.4831 26.0795 44.7352C25.9191 44.9873 25.8085 45.2688 25.7542 45.5638C22.112 65.1299 22.4574 81.0771 26.7936 92.9962C27.3105 94.4058 27.9889 95.7465 28.8148 96.9907L28.8025 96.9986C31.3211 101.179 35.4137 109.425 34.5277 117.675C34.4497 118.426 34.554 119.184 34.8313 119.881C35.1086 120.578 35.5503 121.194 36.1174 121.672L28.4807 164.982C27.6425 167.221 24.8596 172.754 20.9913 174.106C19.3146 174.693 17.5819 174.682 15.5757 174.67C11.7304 174.646 6.94289 174.616 1.72378 179.493C1.2294 179.934 0.863291 180.506 0.666169 181.144C0.469044 181.783 0.448633 182.464 0.607202 183.111C0.766309 183.676 1.08052 184.181 1.51276 184.567C1.94501 184.954 2.47724 185.204 3.04665 185.29ZM56.6642 14.931C47.7372 13.3569 42.4975 10.7326 41.0903 9.34291C42.8894 8.51856 48.7092 7.84435 57.6362 9.41842C66.5632 10.9925 71.8029 13.6168 73.2104 15.0065C71.4108 15.8316 65.5916 16.5051 56.6642 14.931ZM37.0684 103.957C38.4276 104.556 39.8519 104.991 41.3122 105.252C41.3165 105.252 41.3206 105.252 41.3247 105.254C42.7113 105.495 44.1212 105.578 45.5283 105.499C42.8276 108.87 40.2802 113.134 39.0411 118.151C39.0354 118.157 39.0285 118.162 39.0209 118.164C39.0133 118.167 39.0052 118.167 38.9973 118.166C38.9895 118.165 38.9821 118.161 38.9759 118.156C38.9697 118.151 38.9648 118.145 38.9616 118.137C39.3278 114.74 39.1413 109.914 37.0684 103.957ZM15.5115 179.233C17.7224 179.247 20.0085 179.261 22.4039 178.423C25.342 177.395 27.6373 175.092 29.3107 172.768C30.0498 175.519 31.3861 178.46 33.7979 180.432C35.7623 182.039 37.9153 182.808 39.9976 183.551C42.8837 184.581 45.4432 185.495 47.6183 188.512L6.6536 181.289C9.72931 179.198 12.4469 179.215 15.5115 179.233Z" fill="#E1D9D0"/>
<path d="M31.4265 70.9617C31.4459 71.5642 31.6978 72.1324 32.1272 72.5421C32.5566 72.9518 33.1285 73.1698 33.718 73.1484C34.3075 73.127 34.8666 72.8679 35.2732 72.4278C35.6798 71.9877 35.9008 71.4023 35.8879 70.7996C35.669 62.6428 36.1977 55.2609 37.459 48.8595C37.5761 48.2652 37.4579 47.6496 37.1303 47.148C36.8028 46.6465 36.2928 46.3002 35.7126 46.1853C35.1323 46.0704 34.5292 46.1963 34.0361 46.5352C33.543 46.8742 33.2002 47.3985 33.0831 47.9928C31.7576 54.733 31.1985 62.4605 31.4265 70.9617Z" fill="#E1D9D0"/>
<path d="M38.5281 32.9269C37.9524 32.7936 37.3466 32.8991 36.8431 33.2205C36.3397 33.5419 35.9795 34.053 35.8413 34.642C35.4472 36.3421 35.3132 37.2498 35.1585 38.3007C35.072 38.8833 34.9744 39.5436 34.8151 40.4472C34.7099 41.0436 34.8404 41.6564 35.1779 42.1508C35.5154 42.6451 36.0322 42.9805 36.6146 43.0832C37.197 43.1859 37.7974 43.0475 38.2836 42.6984C38.7698 42.3493 39.102 41.8181 39.2072 41.2217C39.3778 40.2543 39.4805 39.5602 39.5704 38.9477C39.7224 37.9191 39.8324 37.1775 40.1836 35.6604C40.3204 35.0705 40.2228 34.4511 39.9123 33.9385C39.6018 33.4258 39.1039 33.062 38.5281 32.9269Z" fill="#E1D9D0"/>
</svg>
