<svg width="140" height="145" viewBox="0 0 140 145" fill="none" xmlns="http://www.w3.org/2000/svg">
<path d="M128.22 42.9681C127.234 41.5721 125.302 41.2381 123.908 42.2257C122.512 43.2114 122.181 45.1414 123.166 46.5373C130.134 56.4038 133.814 68.025 133.814 80.1452C133.814 112.314 107.644 138.484 75.475 138.484C52.2965 138.484 32.2356 124.896 22.831 105.272C22.8888 105.272 22.9444 105.274 23.0022 105.274C30.8252 105.274 39.7968 104.122 48.521 102.109C55.5214 100.493 62.2104 98.3503 68.0891 95.8945L64.6002 103.247C63.8682 104.79 64.526 106.635 66.0683 107.367C66.4972 107.571 66.9488 107.666 67.3921 107.666C68.5489 107.666 69.6603 107.015 70.1881 105.899L77.5782 90.321C78.3081 88.7787 77.6524 86.9332 76.108 86.2012C75.9121 86.1084 75.7121 86.0383 75.508 85.9888L61.4454 75.3038C60.0845 74.2728 58.1442 74.5346 57.1112 75.8955C56.0781 77.2564 56.342 79.1967 57.7029 80.2298L68.9324 88.7622C62.6949 91.6757 55.142 94.2285 47.1271 96.0801C36.541 98.5276 27.3075 99.2823 20.2762 99.004C18.2473 93.0841 17.1318 86.7456 17.1318 80.1452C17.1318 54.2119 34.5285 31.1386 59.4391 24.0351C61.0804 23.567 62.0331 21.8556 61.565 20.2122C61.0969 18.5688 59.3834 17.6162 57.7421 18.0864C30.1902 25.9445 10.9479 51.4654 10.9479 80.1452C10.9479 81.17 10.9789 82.1866 11.0263 83.197C5.35794 85.2383 2.39902 89.2777 1.55362 90.6035C0.650479 92.018 -0.331016 94.1027 0.108182 96.0079C1.30412 101.181 7.41578 103.965 15.8946 104.901C25.625 128.228 48.6633 144.67 75.475 144.67C111.054 144.67 140 115.724 140 80.1452C140 66.7384 135.928 53.8841 128.22 42.9681ZM6.24046 94.9254C6.60543 93.9047 8.36634 91.319 11.6572 89.6653C12.0964 92.6242 12.746 95.5131 13.5749 98.3256C9.46125 97.5874 6.86111 96.3626 6.24046 94.9254Z" fill="#FBF8F4"/>
<path d="M95.0483 60.02C94.6655 60.4453 94.1977 60.5038 93.9531 60.5038C93.7086 60.5038 93.2408 60.44 92.858 60.02C80.301 46.0277 72.8051 33.8216 72.8051 27.373C72.8051 15.7092 82.2946 6.22506 93.9531 6.22506C105.612 6.22506 115.101 15.7145 115.101 27.373C115.101 33.8216 107.605 46.0277 95.0483 60.02ZM93.9531 0.685547C79.2378 0.685547 67.2656 12.6577 67.2656 27.373C67.2656 38.1863 80.721 54.7836 88.7379 63.7201C90.067 65.1981 91.9649 66.0487 93.9531 66.0487C95.9414 66.0487 97.8446 65.2034 99.1684 63.7201C107.185 54.7889 120.641 38.1863 120.641 27.373C120.641 12.6577 108.668 0.685547 93.9531 0.685547Z" fill="#FBF8F4"/>
<path d="M93.9479 33.864C89.4344 33.864 85.7662 30.1905 85.7662 25.6823C85.7662 21.1741 89.4397 17.5006 93.9479 17.5006C98.4561 17.5006 102.13 21.1688 102.13 25.6823C102.13 30.1958 98.4561 33.864 93.9479 33.864ZM93.9479 12.2109C86.5211 12.2109 80.4766 18.2555 80.4766 25.6823C80.4766 33.1091 86.5211 39.1536 93.9479 39.1536C101.375 39.1536 107.419 33.1091 107.419 25.6823C107.419 18.2555 101.375 12.2109 93.9479 12.2109Z" fill="#FBF8F4"/>
</svg>
