<svg width="130" height="91" viewBox="0 0 130 91" fill="none" xmlns="http://www.w3.org/2000/svg">
<g clip-path="url(#clip0_695_36996)">
<path d="M1.3201 42.0032C0.440034 42.0032 0 41.5232 0 40.5631C0 39.443 0.560043 37.8429 1.68013 35.7627C2.80021 33.6826 4.08031 31.5624 5.52042 29.4023C6.96053 27.2421 8.16063 25.482 9.1207 24.1219C9.76075 23.2418 10.6408 22.0417 11.7609 20.5216C12.881 19.0015 14.0411 17.3613 15.2412 15.6012C16.4413 13.7611 17.4413 11.9609 18.2414 10.2008C19.1215 8.44065 19.5615 6.88053 19.5615 5.52042C19.5615 4.16032 19.1215 3.16024 18.2414 2.52019C17.4413 1.88014 17.0413 1.20009 17.0413 0.480034C17.0413 0.160011 17.2013 0 17.5213 0C17.9214 0 18.4014 0.200015 18.9615 0.600046C19.5215 0.920071 20.1215 1.3601 20.7616 1.92015C21.4016 2.48019 22.0017 3.12024 22.5617 3.8403C23.0418 4.40034 23.5218 5.04039 24.0018 5.76044C24.4819 6.4805 24.7219 7.32056 24.7219 8.28064C24.7219 9.48073 24.2819 10.8008 23.4018 12.2409C21.9617 14.7211 20.2816 17.0013 18.3614 19.0815C16.4413 21.1616 14.4811 23.3618 12.481 25.682C10.3208 28.1622 8.36064 30.4823 6.60051 32.6425C4.92038 34.7227 3.8803 36.0428 3.48027 36.6028C4.36034 35.5627 5.80045 34.0026 7.8006 31.9225C9.88076 29.8423 12.2009 27.5621 14.7611 25.0819C17.4013 22.6017 20.0415 20.2416 22.6817 18.0014C25.402 15.6812 27.9221 13.7611 30.2423 12.2409C32.5625 10.6408 34.4026 9.80075 35.7628 9.72075C38.1629 9.48073 39.8031 9.68074 40.6831 10.3208C41.6432 10.8808 42.1632 11.6409 42.2432 12.601C42.4033 13.561 42.4833 14.5211 42.4833 15.4812C42.4833 16.5213 42.2432 17.8814 41.7632 19.5615C41.2832 21.1616 40.6831 22.8418 39.9631 24.6019C39.323 26.282 38.683 27.8021 38.0429 29.1622C37.4829 30.5223 37.0829 31.5224 36.8428 32.1625C37.5629 31.6024 38.563 30.4823 39.8431 28.8022C41.1232 27.1221 42.4833 25.362 43.9234 23.5218C45.4435 21.6017 46.8036 20.1215 48.0037 19.0815C48.8838 18.2814 49.6038 17.7614 50.1639 17.5213C50.8039 17.2013 51.2839 17.0413 51.604 17.0413C52.244 17.0413 52.6841 17.3613 52.9241 18.0014C53.1641 18.5614 53.3241 19.1215 53.4041 19.6815C53.6441 20.6416 53.9241 22.0017 54.2442 23.7618C54.5642 25.442 55.0842 27.2421 55.8043 29.1622C56.6044 31.0024 57.7644 32.6025 59.2846 33.9626C59.9246 34.5227 60.6447 34.9227 61.4447 35.1627C62.2448 35.3227 63.1249 35.4027 64.0849 35.4027C65.685 35.4027 67.4052 35.1627 69.2453 34.6827C71.0855 34.1226 72.6856 33.5226 74.0457 32.8825C77.406 31.2024 80.6462 29.2022 83.7664 26.8821C86.9667 24.5619 90.2469 22.0417 93.6072 19.3215L101.168 13.081C101.808 12.601 102.208 12.361 102.368 12.361C102.768 12.361 102.328 13.281 101.048 15.1212C99.8477 16.8813 97.8875 18.9215 95.1673 21.2416C93.2472 22.7617 91.007 24.5219 88.4468 26.522C85.8866 28.5222 83.1664 30.4423 80.2862 32.2825C77.486 34.0426 74.6457 35.5227 71.7655 36.7228C70.2454 37.2829 68.7653 37.7629 67.3252 38.1629C65.9651 38.563 64.605 38.763 63.2449 38.763C60.2846 38.763 57.8845 38.1229 56.0443 36.8428C54.2842 35.4827 52.9241 33.8426 51.964 31.9225C51.0839 29.9223 50.4039 28.0022 49.9238 26.162C49.5238 24.2419 49.1238 22.7217 48.7237 21.6017C47.3636 22.8018 45.9635 24.3219 44.5234 26.162C43.1633 27.9221 41.8832 29.6423 40.6831 31.3224C39.563 33.0025 38.683 34.2426 38.0429 35.0427C37.2429 36.0828 36.3228 36.6028 35.2827 36.6028C34.4827 36.6028 33.8426 36.2828 33.3626 35.6427C32.9625 35.0027 32.8425 34.0826 33.0025 32.8825C33.1626 31.8424 33.5626 30.3623 34.2026 28.4422C34.9227 26.522 35.6427 24.5619 36.3628 22.5617C37.0829 20.4816 37.5229 18.7614 37.6829 17.4013C37.7629 17.0813 37.8029 16.8013 37.8029 16.5613C37.8029 16.2412 37.8029 16.0012 37.8029 15.8412C37.8029 14.7211 37.6029 13.9611 37.2029 13.561C36.8028 13.081 36.2828 12.841 35.6427 12.841C34.6827 12.841 33.5626 13.201 32.2825 13.9211C31.0824 14.5611 30.0023 15.2012 29.0422 15.8412C28.1622 16.4013 26.7221 17.5613 24.7219 19.3215C22.8018 21.0016 20.7216 22.8818 18.4814 24.9619C16.2412 27.0421 14.1211 29.0422 12.1209 30.9624C10.4408 32.5625 8.84068 34.2426 7.32056 36.0028C5.80045 37.6829 4.52035 39.083 3.48027 40.2031C2.44019 41.4032 1.72013 42.0032 1.3201 42.0032Z" fill="white"/>
<path d="M88.8368 90.952C85.2366 90.952 82.1963 89.9919 79.7161 88.0718C77.3159 86.0716 75.5558 83.5514 74.4357 80.5112C73.3156 77.3909 72.7956 74.1907 72.8756 70.9105C69.9154 73.3106 67.1552 75.7908 64.595 78.351C62.1148 80.9112 59.8346 83.4314 57.7544 85.9116L58.1145 87.1117C58.2745 87.4317 58.3545 87.8718 58.3545 88.4318C58.3545 89.2319 58.0345 89.8319 57.3944 90.2319C56.8344 90.632 56.1943 90.832 55.4743 90.832C54.9142 90.832 54.3942 90.712 53.9141 90.472C53.4341 90.3119 53.1141 89.9919 52.9541 89.5119C52.474 88.3918 52.234 87.1917 52.234 85.9116C52.234 82.8714 53.0741 79.4311 54.7542 75.5908C56.5143 71.7505 58.3945 67.9902 60.3946 64.3099C60.1546 64.3899 59.8746 64.43 59.5546 64.43C58.9145 64.43 58.5945 64.2699 58.5945 63.9499C58.5945 63.6299 58.8345 63.3099 59.3146 62.9898C61.0747 61.9498 62.1548 61.0297 62.5548 60.2296C63.9949 57.2694 65.8751 53.8691 68.1952 50.0288C70.5954 46.1886 73.3156 42.1882 76.3559 38.0279C79.4761 33.7876 82.7964 29.7073 86.3166 25.787C89.9169 21.7867 93.5972 18.1864 97.3575 14.9861C101.118 11.7859 104.878 9.22571 108.638 7.30556C112.399 5.38541 115.999 4.42533 119.439 4.42533C122.159 4.42533 124.04 4.98538 125.08 6.10546C126.12 7.22555 126.64 8.58566 126.64 10.1858C126.64 11.3059 126.4 12.466 125.92 13.666C125.52 14.8661 125 15.9862 124.36 17.0263C122.199 20.5466 119.319 24.1069 115.719 27.7071C112.199 31.2274 108.278 34.6677 103.958 38.0279C99.7177 41.3082 95.3173 44.3884 90.757 47.2686C86.2766 50.1489 81.9563 52.7491 77.796 55.0692C73.7157 57.3094 70.1154 59.1895 66.9952 60.7097C65.395 63.7499 63.6749 67.1902 61.8347 71.0305C59.9946 74.8708 58.7545 78.311 58.1145 81.3513C59.7146 79.5911 61.8348 77.551 64.475 75.2308C67.1152 72.8306 69.9954 70.3904 73.1156 67.9102C73.3556 66.0701 73.7557 64.51 74.3157 63.2299C74.7957 61.8698 75.3158 60.9097 75.8758 60.3496C76.4359 59.7896 76.9959 59.5096 77.556 59.5096C78.196 59.5096 78.7561 59.8296 79.2361 60.4696C79.7161 61.0297 80.0362 61.6697 80.1962 62.3898C83.7164 59.7496 87.1967 57.3494 90.637 55.1892C94.1572 52.9491 97.3575 51.1489 100.238 49.7888C103.198 48.4287 105.558 47.7487 107.318 47.7487C109.558 47.7487 110.679 48.5887 110.679 50.2689C110.679 51.0689 110.278 51.909 109.478 52.7891C108.678 53.5891 107.518 54.1092 105.998 54.3492C101.598 54.9892 97.1175 56.3493 92.5571 58.4295C88.0768 60.4296 83.7564 62.8698 79.5961 65.7501C78.476 68.4703 77.916 71.3105 77.916 74.2707C77.916 76.5909 78.316 78.8311 79.1161 80.9912C79.9161 83.0714 81.1562 84.7915 82.8364 86.1516C84.5965 87.4317 86.8767 88.0718 89.6769 88.0718C92.3971 88.0718 95.3173 87.5117 98.4376 86.3916C101.558 85.2716 104.678 83.8714 107.798 82.1913C110.999 80.4312 113.999 78.551 116.799 76.5509C119.679 74.5507 122.159 72.7106 124.24 71.0305C125.12 70.3104 125.92 69.7104 126.64 69.2303C127.44 68.7503 128.24 68.1102 129.04 67.3102C129.2 67.2302 129.4 67.1902 129.64 67.1902C129.88 67.1902 130 67.3102 130 67.5502C130 67.7902 129.84 68.1102 129.52 68.5103C129.04 69.0703 127.96 70.1104 126.28 71.6305C124.6 73.1506 122.519 74.8708 120.039 76.7909C117.639 78.711 114.999 80.5912 112.119 82.4313C109.318 84.2715 106.478 85.8716 103.598 87.2317C101.998 88.0318 99.7977 88.8318 96.9975 89.6319C94.2772 90.512 91.557 90.952 88.8368 90.952ZM68.4353 57.8294C73.0756 55.2692 77.876 52.549 82.8364 49.6688C87.7968 46.7086 92.6371 43.5483 97.3575 40.1881C102.158 36.8278 106.598 33.1475 110.679 29.1472C114.759 25.1469 118.199 20.8266 120.999 16.1862C121.399 15.5462 121.959 14.5461 122.679 13.186C123.399 11.8259 123.76 10.5858 123.76 9.46572C123.76 8.90568 123.559 8.42564 123.159 8.02561C122.839 7.54558 122.199 7.30556 121.239 7.30556C119.719 7.30556 117.679 7.90561 115.119 9.1057C112.559 10.2258 109.838 11.7459 106.958 13.666C104.078 15.5062 101.318 17.4663 98.6776 19.5465C96.1174 21.6267 93.9972 23.6268 92.3171 25.547C90.2369 27.9471 87.9968 30.5873 85.5966 33.4676C83.1964 36.2678 80.8362 39.148 78.516 42.1082C76.2759 45.0685 74.2357 47.9087 72.3956 50.6289C70.6354 53.3491 69.3153 55.7493 68.4353 57.8294Z" fill="white"/>
</g>
<defs>
<clipPath id="clip0_695_36996">
<rect width="130" height="91" fill="white"/>
</clipPath>
</defs>
</svg>
